<svg width="100" height="100" viewBox="0 0 100 100" fill="none" xmlns="http://www.w3.org/2000/svg">
<rect width="100" height="100" fill="#060B0F"/>
<path d="M43.9432 39.16C50.842 34.0114 61.7054 34.3011 66.2499 42.4539C68.9218 47.245 68.7021 52.3938 68.078 56.8611C66.7859 66.1196 62.0117 72.4971 59.493 75.4119C58.8031 75.9145 57.6972 76.5847 56.2518 76.9979C52.3645 78.1035 50.0758 76.1711 45.6737 75.5233C41.6768 74.9314 38.2818 75.7684 33.8798 76.8406C32.1824 77.265 26.7948 78.6952 23.871 77.2322C23.6191 77.1093 23.258 76.8965 23.0936 76.5057C22.3824 74.8415 25.9299 71.8372 26.784 70.7986C30.737 65.963 33.5513 61.0494 35.6757 55.1082C37.8109 49.1557 38.534 43.2028 43.9432 39.16ZM53.3407 50.1365C56.2097 50.6838 56.4507 43.738 53.078 44.5086C52.9248 44.5421 52.5746 44.765 52.454 44.8768V44.8875C51.1728 46.0937 51.3697 49.7568 53.3407 50.1365ZM62.0106 50.0584C64.6605 50.0584 64.5072 43.9942 61.8133 44.3738C59.4156 44.7093 59.5908 50.0581 62.0106 50.0584ZM49.0575 23.6248C50.2948 21.6259 52.2875 24.9752 53.2294 25.9695C53.525 26.2822 55.124 28.0133 55.3758 27.9686L60.577 23.4793C61.3326 23.1889 61.7927 23.4461 61.9022 24.2391C62.3287 27.4962 61.3126 31.5333 61.703 34.8924C56.4034 32.6038 49.6921 32.8276 44.579 35.5633C44.2504 35.7308 42.6182 36.9037 42.5087 36.8143C42.3444 35.0609 39.552 28.4271 39.9022 27.1649C40.0117 26.7628 40.4611 26.5508 40.8553 26.6736L46.8348 29.3319L49.0575 23.6248ZM61.7049 34.8934V34.9041C61.7045 34.9002 61.7035 34.8963 61.703 34.8924L61.7049 34.8934Z" fill="white"/>
<path d="M43.9432 39.16C50.842 34.0114 61.7054 34.3011 66.2499 42.4539C68.9218 47.245 68.7021 52.3938 68.078 56.8611C66.7859 66.1196 62.0117 72.4971 59.493 75.4119C58.8031 75.9145 57.6972 76.5847 56.2518 76.9979C52.3645 78.1035 50.0758 76.1711 45.6737 75.5233C41.6768 74.9314 38.2818 75.7684 33.8798 76.8406C32.1824 77.265 26.7948 78.6952 23.871 77.2322C23.6191 77.1093 23.258 76.8965 23.0936 76.5057C22.3824 74.8415 25.9299 71.8372 26.784 70.7986C30.737 65.963 33.5513 61.0494 35.6757 55.1082C37.8109 49.1557 38.534 43.2028 43.9432 39.16ZM53.3407 50.1365C56.2097 50.6838 56.4507 43.738 53.078 44.5086C52.9248 44.5421 52.5746 44.765 52.454 44.8768V44.8875C51.1728 46.0937 51.3697 49.7568 53.3407 50.1365ZM62.0106 50.0584C64.6605 50.0584 64.5072 43.9942 61.8133 44.3738C59.4156 44.7093 59.5908 50.0581 62.0106 50.0584ZM49.0575 23.6248C50.2948 21.6259 52.2875 24.9752 53.2294 25.9695C53.525 26.2822 55.124 28.0133 55.3758 27.9686L60.577 23.4793C61.3326 23.1889 61.7927 23.4461 61.9022 24.2391C62.3287 27.4962 61.3126 31.5333 61.703 34.8924C56.4034 32.6038 49.6921 32.8276 44.579 35.5633C44.2504 35.7308 42.6182 36.9037 42.5087 36.8143C42.3444 35.0609 39.552 28.4271 39.9022 27.1649C40.0117 26.7628 40.4611 26.5508 40.8553 26.6736L46.8348 29.3319L49.0575 23.6248ZM61.7049 34.8934V34.9041C61.7045 34.9002 61.7035 34.8963 61.703 34.8924L61.7049 34.8934Z" fill="url(#paint0_linear_1_17)"/>
<defs>
<linearGradient id="paint0_linear_1_17" x1="45.7394" y1="23" x2="45.7394" y2="77.8757" gradientUnits="userSpaceOnUse">
<stop stop-color="#5EFB7E"/>
<stop offset="1" stop-color="#ADFA3C"/>
</linearGradient>
</defs>
</svg>
